<?xml version="1.0" encoding="us-ascii" standalone="no"?><svg xmlns="http://www.w3.org/2000/svg" xmlns:xlink="http://www.w3.org/1999/xlink" contentStyleType="text/css" height="461px" preserveAspectRatio="none" style="width:494px;height:461px;background:#FFFFFF;" version="1.1" viewBox="0 0 494 461" width="494px" zoomAndPan="magnify"><defs/><g><rect fill="#FFFFFF" height="34.6859" style="stroke:#181818;stroke-width:1.0;" width="10" x="114.5" y="120.7434"/><rect fill="#FFFFFF" height="178.7435" style="stroke:#181818;stroke-width:1.0;" width="10" x="114.5" y="190.1152"/><rect fill="#FFFFFF" height="178.7435" style="stroke:#181818;stroke-width:1.0;" width="10" x="184.5" y="190.1152"/><rect fill="#FFFFFF" height="88.3718" style="stroke:#181818;stroke-width:1.0;" width="10" x="189.5" y="232.8011"/><rect fill="#FFFFFF" height="34.6859" style="stroke:#181818;stroke-width:1.0;" width="10" x="460.5" y="120.7434"/><rect fill="#FFFFFF" height="31.6859" style="stroke:#181818;stroke-width:1.0;" width="10" x="460.5" y="269.4869"/><line style="stroke:#181818;stroke-width:0.5;stroke-dasharray:5.0,5.0;" x1="119" x2="119" y1="84.0575" y2="377.8587"/><line style="stroke:#181818;stroke-width:0.5;stroke-dasharray:5.0,5.0;" x1="189" x2="189" y1="84.0575" y2="377.8587"/><line style="stroke:#181818;stroke-width:0.5;stroke-dasharray:5.0,5.0;" x1="465.5" x2="465.5" y1="84.0575" y2="377.8587"/><text fill="#000000" font-family="sans-serif" font-size="14" lengthAdjust="spacing" textLength="39" x="97" y="79.9578">Client</text><ellipse cx="119.5" cy="13.5" fill="#E2E2F0" rx="8" ry="8" style="stroke:#181818;stroke-width:0.5;"/><path d="M119.5,21.5 L119.5,48.5 M106.5,29.5 L132.5,29.5 M119.5,48.5 L106.5,63.5 M119.5,48.5 L132.5,63.5 " fill="none" style="stroke:#181818;stroke-width:0.5;"/><text fill="#000000" font-family="sans-serif" font-size="14" lengthAdjust="spacing" textLength="39" x="97" y="391.8165">Client</text><ellipse cx="119.5" cy="404.4162" fill="#E2E2F0" rx="8" ry="8" style="stroke:#181818;stroke-width:0.5;"/><path d="M119.5,412.4162 L119.5,439.4162 M106.5,420.4162 L132.5,420.4162 M119.5,439.4162 L106.5,454.4162 M119.5,439.4162 L132.5,454.4162 " fill="none" style="stroke:#181818;stroke-width:0.5;"/><rect fill="#E2E2F0" height="33.0575" rx="2.5" ry="2.5" style="stroke:#181818;stroke-width:0.5;" width="43" x="168" y="50"/><text fill="#000000" font-family="sans-serif" font-size="14" lengthAdjust="spacing" textLength="29" x="175" y="71.9578">Http</text><rect fill="#E2E2F0" height="33.0575" rx="2.5" ry="2.5" style="stroke:#181818;stroke-width:0.5;" width="43" x="168" y="376.8587"/><text fill="#000000" font-family="sans-serif" font-size="14" lengthAdjust="spacing" textLength="29" x="175" y="398.8165">Http</text><rect fill="#E2E2F0" height="33.0575" rx="2.5" ry="2.5" style="stroke:#181818;stroke-width:0.5;" width="46" x="442.5" y="50"/><text fill="#000000" font-family="sans-serif" font-size="14" lengthAdjust="spacing" textLength="32" x="449.5" y="71.9578">Auth</text><rect fill="#E2E2F0" height="33.0575" rx="2.5" ry="2.5" style="stroke:#181818;stroke-width:0.5;" width="46" x="442.5" y="376.8587"/><text fill="#000000" font-family="sans-serif" font-size="14" lengthAdjust="spacing" textLength="32" x="449.5" y="398.8165">Auth</text><rect fill="#FFFFFF" height="34.6859" style="stroke:#181818;stroke-width:1.0;" width="10" x="114.5" y="120.7434"/><rect fill="#FFFFFF" height="178.7435" style="stroke:#181818;stroke-width:1.0;" width="10" x="114.5" y="190.1152"/><rect fill="#FFFFFF" height="178.7435" style="stroke:#181818;stroke-width:1.0;" width="10" x="184.5" y="190.1152"/><rect fill="#FFFFFF" height="88.3718" style="stroke:#181818;stroke-width:1.0;" width="10" x="189.5" y="232.8011"/><rect fill="#FFFFFF" height="34.6859" style="stroke:#181818;stroke-width:1.0;" width="10" x="460.5" y="120.7434"/><rect fill="#FFFFFF" height="31.6859" style="stroke:#181818;stroke-width:1.0;" width="10" x="460.5" y="269.4869"/><polygon fill="#181818" points="448.5,116.7434,458.5,120.7434,448.5,124.7434,452.5,120.7434" style="stroke:#181818;stroke-width:1.0;"/><line style="stroke:#181818;stroke-width:1.0;" x1="124.5" x2="454.5" y1="120.7434" y2="120.7434"/><text fill="#000000" font-family="sans-serif" font-size="13" lengthAdjust="spacing" textLength="94" x="131.5" y="114.9387">&#1051;&#1086;&#1075;&#1080;&#1085;, &#1055;&#1072;&#1088;&#1086;&#1083;&#1100;</text><path d="M5,99.0575 L5,126.0575 L110,126.0575 L110,109.0575 L100,99.0575 L5,99.0575 " fill="#FEFFDD" style="stroke:#181818;stroke-width:0.5;"/><path d="M100,99.0575 L100,109.0575 L110,109.0575 L100,99.0575 " fill="#FEFFDD" style="stroke:#181818;stroke-width:0.5;"/><text fill="#000000" font-family="sans-serif" font-size="13" lengthAdjust="spacing" textLength="84" x="11" y="117.9387">&#1040;&#1074;&#1090;&#1086;&#1088;&#1080;&#1079;&#1072;&#1094;&#1080;&#1103;.</text><polygon fill="#181818" points="130.5,151.4293,120.5,155.4293,130.5,159.4293,126.5,155.4293" style="stroke:#181818;stroke-width:1.0;"/><line style="stroke:#181818;stroke-width:1.0;stroke-dasharray:2.0,2.0;" x1="124.5" x2="464.5" y1="155.4293" y2="155.4293"/><text fill="#000000" font-family="sans-serif" font-size="13" lengthAdjust="spacing" textLength="160" x="136.5" y="149.6246">Auth Token, Refresh Token</text><polygon fill="#181818" points="172.5,186.1152,182.5,190.1152,172.5,194.1152,176.5,190.1152" style="stroke:#181818;stroke-width:1.0;"/><line style="stroke:#181818;stroke-width:1.0;" x1="124.5" x2="178.5" y1="190.1152" y2="190.1152"/><text fill="#000000" font-family="sans-serif" font-size="13" lengthAdjust="spacing" textLength="43" x="131.5" y="184.3105">&#1079;&#1072;&#1087;&#1088;&#1086;&#1089;</text><path d="M40,168.4293 L40,195.4293 L109,195.4293 L109,178.4293 L99,168.4293 L40,168.4293 " fill="#FEFFDD" style="stroke:#181818;stroke-width:0.5;"/><path d="M99,168.4293 L99,178.4293 L109,178.4293 L99,168.4293 " fill="#FEFFDD" style="stroke:#181818;stroke-width:0.5;"/><text fill="#000000" font-family="sans-serif" font-size="13" lengthAdjust="spacing" textLength="48" x="46" y="187.3105">&#1047;&#1072;&#1087;&#1088;&#1086;&#1089;.</text><line style="stroke:#181818;stroke-width:1.0;" x1="194.5" x2="241.5" y1="219.8011" y2="219.8011"/><line style="stroke:#181818;stroke-width:1.0;" x1="241.5" x2="241.5" y1="219.8011" y2="232.8011"/><line style="stroke:#181818;stroke-width:1.0;" x1="200.5" x2="241.5" y1="232.8011" y2="232.8011"/><polygon fill="#181818" points="210.5,228.8011,200.5,232.8011,210.5,236.8011,206.5,232.8011" style="stroke:#181818;stroke-width:1.0;"/><text fill="#000000" font-family="sans-serif" font-size="13" lengthAdjust="spacing" textLength="69" x="206.5" y="213.9964">Auth Token</text><polygon fill="#181818" points="448.5,265.4869,458.5,269.4869,448.5,273.4869,452.5,269.4869" style="stroke:#181818;stroke-width:1.0;"/><line style="stroke:#181818;stroke-width:1.0;" x1="199.5" x2="454.5" y1="269.4869" y2="269.4869"/><text fill="#000000" font-family="sans-serif" font-size="13" lengthAdjust="spacing" textLength="242" x="206.5" y="263.6823">&#1045;&#1089;&#1083;&#1080; Invalid, &#1086;&#1090;&#1087;&#1088;&#1072;&#1074;&#1083;&#1103;&#1077;&#1084; Refresh Token</text><polygon fill="#181818" points="210.5,297.1728,200.5,301.1728,210.5,305.1728,206.5,301.1728" style="stroke:#181818;stroke-width:1.0;"/><line style="stroke:#181818;stroke-width:1.0;stroke-dasharray:2.0,2.0;" x1="204.5" x2="464.5" y1="301.1728" y2="301.1728"/><text fill="#000000" font-family="sans-serif" font-size="13" lengthAdjust="spacing" textLength="115" x="216.5" y="295.3681">&#1053;&#1086;&#1074;&#1099;&#1081; Auth Token</text><line style="stroke:#181818;stroke-width:1.0;stroke-dasharray:2.0,2.0;" x1="199.5" x2="241.5" y1="320.1728" y2="320.1728"/><line style="stroke:#181818;stroke-width:1.0;stroke-dasharray:2.0,2.0;" x1="241.5" x2="241.5" y1="320.1728" y2="333.1728"/><line style="stroke:#181818;stroke-width:1.0;stroke-dasharray:2.0,2.0;" x1="194.5" x2="241.5" y1="333.1728" y2="333.1728"/><polygon fill="#181818" points="204.5,329.1728,194.5,333.1728,204.5,337.1728,200.5,333.1728" style="stroke:#181818;stroke-width:1.0;"/><polygon fill="#181818" points="135.5,355.8587,125.5,359.8587,135.5,363.8587,131.5,359.8587" style="stroke:#181818;stroke-width:1.0;"/><line style="stroke:#181818;stroke-width:1.0;stroke-dasharray:2.0,2.0;" x1="129.5" x2="183.5" y1="359.8587" y2="359.8587"/><text fill="#000000" font-family="sans-serif" font-size="13" lengthAdjust="spacing" textLength="36" x="141.5" y="354.054">&#1054;&#1090;&#1074;&#1077;&#1090;</text><!--SRC=[VP4zJiD048NxFSLqD347G0W9qK2BkC3YR8I5MLlBE3L90GM8q20A15mXCbWOGfmhpDw8MRF4FnAui3opRsVU-on3J0pinP7IA4Gg3KPXb4gDi8-OTXgx6Pu8iG7qI1MzKabBBcI6YSxEZfKHFqCWsAcLMotT0EY5vlQ2wuMz4Jf11R4Q8MlkABTJglYif7VMN59fPvj2XXYD9SkyitLTc_2RjeF0ht9lE4fEbHx0eHePTUvBCLJTgwtwDpGdMh6pD_faTxVsYWfQifkYamvQyHmPjivsQUL2sKadqaFJ_oT8ZHVuSH_Dr2P9VVYtt3E-jnDQK0a7UYpZQCYaA-RfriyfvpmpJlFLOz8PN5DP3swGqXCpoUqrVVGzzP6wdb6O6Tt-CHxICxl9gR1JyGq0]--></g></svg>