<?xml version="1.0" encoding="us-ascii" standalone="no"?><svg xmlns="http://www.w3.org/2000/svg" xmlns:xlink="http://www.w3.org/1999/xlink" contentStyleType="text/css" height="1130px" preserveAspectRatio="none" style="width:944px;height:1130px;background:#FFFFFF;" version="1.1" viewBox="0 0 944 1130" width="944px" zoomAndPan="magnify"><defs/><g><rect fill="#FFFFFF" height="34.6859" style="stroke:#181818;stroke-width:1.0;" width="10" x="179.5" y="120.7434"/><rect fill="#FFFFFF" height="224.8012" style="stroke:#181818;stroke-width:1.0;" width="10" x="179.5" y="190.1152"/><rect fill="#FFFFFF" height="224.8012" style="stroke:#181818;stroke-width:1.0;" width="10" x="179.5" y="449.6022"/><rect fill="#FFFFFF" height="288.1729" style="stroke:#181818;stroke-width:1.0;" width="10" x="179.5" y="740.7752"/><rect fill="#FFFFFF" height="34.6859" style="stroke:#181818;stroke-width:1.0;" width="10" x="312.5" y="120.7434"/><rect fill="#FFFFFF" height="31.6859" style="stroke:#181818;stroke-width:1.0;" width="10" x="312.5" y="224.8011"/><rect fill="#FFFFFF" height="31.6859" style="stroke:#181818;stroke-width:1.0;" width="10" x="312.5" y="351.5446"/><rect fill="#FFFFFF" height="31.6859" style="stroke:#181818;stroke-width:1.0;" width="10" x="312.5" y="484.2881"/><rect fill="#FFFFFF" height="31.6859" style="stroke:#181818;stroke-width:1.0;" width="10" x="312.5" y="838.8328"/><rect fill="#FFFFFF" height="98.0576" style="stroke:#181818;stroke-width:1.0;" width="10" x="473.5" y="190.1152"/><rect fill="#FFFFFF" height="63.3718" style="stroke:#181818;stroke-width:1.0;" width="10" x="473.5" y="642.7175"/><rect fill="#FFFFFF" height="34.6859" style="stroke:#181818;stroke-width:1.0;" width="10" x="473.5" y="740.7752"/><rect fill="#FFFFFF" height="95.0576" style="stroke:#181818;stroke-width:1.0;" width="10" x="600.5" y="319.8587"/><rect fill="#FFFFFF" height="161.4294" style="stroke:#181818;stroke-width:1.0;" width="10" x="600.5" y="449.6022"/><rect fill="#FFFFFF" height="221.8012" style="stroke:#181818;stroke-width:1.0;" width="10" x="600.5" y="807.1469"/><rect fill="#FFFFFF" height="31.6859" style="stroke:#181818;stroke-width:1.0;" width="10" x="811.5" y="547.6599"/><rect fill="#FFFFFF" height="31.6859" style="stroke:#181818;stroke-width:1.0;" width="10" x="811.5" y="902.2046"/><rect fill="#FFFFFF" height="31.6859" style="stroke:#181818;stroke-width:1.0;" width="10" x="902" y="965.5764"/><line style="stroke:#181818;stroke-width:0.5;stroke-dasharray:5.0,5.0;" x1="184" x2="184" y1="84.0575" y2="1046.9481"/><line style="stroke:#181818;stroke-width:0.5;stroke-dasharray:5.0,5.0;" x1="317.5" x2="317.5" y1="84.0575" y2="1046.9481"/><line style="stroke:#181818;stroke-width:0.5;stroke-dasharray:5.0,5.0;" x1="478" x2="478" y1="84.0575" y2="1046.9481"/><line style="stroke:#181818;stroke-width:0.5;stroke-dasharray:5.0,5.0;" x1="605" x2="605" y1="84.0575" y2="1046.9481"/><line style="stroke:#181818;stroke-width:0.5;stroke-dasharray:5.0,5.0;" x1="816" x2="816" y1="84.0575" y2="1046.9481"/><line style="stroke:#181818;stroke-width:0.5;stroke-dasharray:5.0,5.0;" x1="907" x2="907" y1="84.0575" y2="1046.9481"/><text fill="#000000" font-family="sans-serif" font-size="14" lengthAdjust="spacing" textLength="39" x="162" y="79.9578">Client</text><ellipse cx="184.5" cy="13.5" fill="#E2E2F0" rx="8" ry="8" style="stroke:#181818;stroke-width:0.5;"/><path d="M184.5,21.5 L184.5,48.5 M171.5,29.5 L197.5,29.5 M184.5,48.5 L171.5,63.5 M184.5,48.5 L197.5,63.5 " fill="none" style="stroke:#181818;stroke-width:0.5;"/><text fill="#000000" font-family="sans-serif" font-size="14" lengthAdjust="spacing" textLength="39" x="162" y="1060.9059">Client</text><ellipse cx="184.5" cy="1073.5056" fill="#E2E2F0" rx="8" ry="8" style="stroke:#181818;stroke-width:0.5;"/><path d="M184.5,1081.5056 L184.5,1108.5056 M171.5,1089.5056 L197.5,1089.5056 M184.5,1108.5056 L171.5,1123.5056 M184.5,1108.5056 L197.5,1123.5056 " fill="none" style="stroke:#181818;stroke-width:0.5;"/><rect fill="#E2E2F0" height="33.0575" rx="2.5" ry="2.5" style="stroke:#181818;stroke-width:0.5;" width="46" x="294.5" y="50"/><text fill="#000000" font-family="sans-serif" font-size="14" lengthAdjust="spacing" textLength="32" x="301.5" y="71.9578">Auth</text><rect fill="#E2E2F0" height="33.0575" rx="2.5" ry="2.5" style="stroke:#181818;stroke-width:0.5;" width="46" x="294.5" y="1045.9481"/><text fill="#000000" font-family="sans-serif" font-size="14" lengthAdjust="spacing" textLength="32" x="301.5" y="1067.9059">Auth</text><rect fill="#E2E2F0" height="33.0575" rx="2.5" ry="2.5" style="stroke:#181818;stroke-width:0.5;" width="87" x="435" y="50"/><text fill="#000000" font-family="sans-serif" font-size="14" lengthAdjust="spacing" textLength="73" x="442" y="71.9578">WebSocket</text><rect fill="#E2E2F0" height="33.0575" rx="2.5" ry="2.5" style="stroke:#181818;stroke-width:0.5;" width="87" x="435" y="1045.9481"/><text fill="#000000" font-family="sans-serif" font-size="14" lengthAdjust="spacing" textLength="73" x="442" y="1067.9059">WebSocket</text><rect fill="#E2E2F0" height="33.0575" rx="2.5" ry="2.5" style="stroke:#181818;stroke-width:0.5;" width="43" x="584" y="50"/><text fill="#000000" font-family="sans-serif" font-size="14" lengthAdjust="spacing" textLength="29" x="591" y="71.9578">Http</text><rect fill="#E2E2F0" height="33.0575" rx="2.5" ry="2.5" style="stroke:#181818;stroke-width:0.5;" width="43" x="584" y="1045.9481"/><text fill="#000000" font-family="sans-serif" font-size="14" lengthAdjust="spacing" textLength="29" x="591" y="1067.9059">Http</text><rect fill="#E2E2F0" height="33.0575" rx="2.5" ry="2.5" style="stroke:#181818;stroke-width:0.5;" width="99" x="767" y="50"/><text fill="#000000" font-family="sans-serif" font-size="14" lengthAdjust="spacing" textLength="85" x="774" y="71.9578">Message_DB</text><rect fill="#E2E2F0" height="33.0575" rx="2.5" ry="2.5" style="stroke:#181818;stroke-width:0.5;" width="99" x="767" y="1045.9481"/><text fill="#000000" font-family="sans-serif" font-size="14" lengthAdjust="spacing" textLength="85" x="774" y="1067.9059">Message_DB</text><rect fill="#E2E2F0" height="33.0575" rx="2.5" ry="2.5" style="stroke:#181818;stroke-width:0.5;" width="62" x="876" y="50"/><text fill="#000000" font-family="sans-serif" font-size="14" lengthAdjust="spacing" textLength="48" x="883" y="71.9578">File_DB</text><rect fill="#E2E2F0" height="33.0575" rx="2.5" ry="2.5" style="stroke:#181818;stroke-width:0.5;" width="62" x="876" y="1045.9481"/><text fill="#000000" font-family="sans-serif" font-size="14" lengthAdjust="spacing" textLength="48" x="883" y="1067.9059">File_DB</text><rect fill="#FFFFFF" height="34.6859" style="stroke:#181818;stroke-width:1.0;" width="10" x="179.5" y="120.7434"/><rect fill="#FFFFFF" height="224.8012" style="stroke:#181818;stroke-width:1.0;" width="10" x="179.5" y="190.1152"/><rect fill="#FFFFFF" height="224.8012" style="stroke:#181818;stroke-width:1.0;" width="10" x="179.5" y="449.6022"/><rect fill="#FFFFFF" height="288.1729" style="stroke:#181818;stroke-width:1.0;" width="10" x="179.5" y="740.7752"/><rect fill="#FFFFFF" height="34.6859" style="stroke:#181818;stroke-width:1.0;" width="10" x="312.5" y="120.7434"/><rect fill="#FFFFFF" height="31.6859" style="stroke:#181818;stroke-width:1.0;" width="10" x="312.5" y="224.8011"/><rect fill="#FFFFFF" height="31.6859" style="stroke:#181818;stroke-width:1.0;" width="10" x="312.5" y="351.5446"/><rect fill="#FFFFFF" height="31.6859" style="stroke:#181818;stroke-width:1.0;" width="10" x="312.5" y="484.2881"/><rect fill="#FFFFFF" height="31.6859" style="stroke:#181818;stroke-width:1.0;" width="10" x="312.5" y="838.8328"/><rect fill="#FFFFFF" height="98.0576" style="stroke:#181818;stroke-width:1.0;" width="10" x="473.5" y="190.1152"/><rect fill="#FFFFFF" height="63.3718" style="stroke:#181818;stroke-width:1.0;" width="10" x="473.5" y="642.7175"/><rect fill="#FFFFFF" height="34.6859" style="stroke:#181818;stroke-width:1.0;" width="10" x="473.5" y="740.7752"/><rect fill="#FFFFFF" height="95.0576" style="stroke:#181818;stroke-width:1.0;" width="10" x="600.5" y="319.8587"/><rect fill="#FFFFFF" height="161.4294" style="stroke:#181818;stroke-width:1.0;" width="10" x="600.5" y="449.6022"/><rect fill="#FFFFFF" height="221.8012" style="stroke:#181818;stroke-width:1.0;" width="10" x="600.5" y="807.1469"/><rect fill="#FFFFFF" height="31.6859" style="stroke:#181818;stroke-width:1.0;" width="10" x="811.5" y="547.6599"/><rect fill="#FFFFFF" height="31.6859" style="stroke:#181818;stroke-width:1.0;" width="10" x="811.5" y="902.2046"/><rect fill="#FFFFFF" height="31.6859" style="stroke:#181818;stroke-width:1.0;" width="10" x="902" y="965.5764"/><polygon fill="#181818" points="300.5,116.7434,310.5,120.7434,300.5,124.7434,304.5,120.7434" style="stroke:#181818;stroke-width:1.0;"/><line style="stroke:#181818;stroke-width:1.0;" x1="189.5" x2="306.5" y1="120.7434" y2="120.7434"/><text fill="#000000" font-family="sans-serif" font-size="13" lengthAdjust="spacing" textLength="39" x="196.5" y="114.9387">&#1051;&#1086;&#1075;&#1080;&#1085;</text><path d="M69,99.0575 L69,126.0575 L174,126.0575 L174,109.0575 L164,99.0575 L69,99.0575 " fill="#FEFFDD" style="stroke:#181818;stroke-width:0.5;"/><path d="M164,99.0575 L164,109.0575 L174,109.0575 L164,99.0575 " fill="#FEFFDD" style="stroke:#181818;stroke-width:0.5;"/><text fill="#000000" font-family="sans-serif" font-size="13" lengthAdjust="spacing" textLength="84" x="75" y="117.9387">&#1040;&#1074;&#1090;&#1086;&#1088;&#1080;&#1079;&#1072;&#1094;&#1080;&#1103;.</text><polygon fill="#181818" points="195.5,151.4293,185.5,155.4293,195.5,159.4293,191.5,155.4293" style="stroke:#181818;stroke-width:1.0;"/><line style="stroke:#181818;stroke-width:1.0;stroke-dasharray:2.0,2.0;" x1="189.5" x2="316.5" y1="155.4293" y2="155.4293"/><text fill="#000000" font-family="sans-serif" font-size="13" lengthAdjust="spacing" textLength="99" x="201.5" y="149.6246">A.Token,R.Token</text><polygon fill="#181818" points="461.5,186.1152,471.5,190.1152,461.5,194.1152,465.5,190.1152" style="stroke:#181818;stroke-width:1.0;"/><line style="stroke:#181818;stroke-width:1.0;" x1="189.5" x2="467.5" y1="190.1152" y2="190.1152"/><text fill="#000000" font-family="sans-serif" font-size="13" lengthAdjust="spacing" textLength="148" x="196.5" y="184.3105">&#1087;&#1086;&#1076;&#1082;&#1083;&#1102;&#1095;&#1077;&#1085;&#1080;&#1077; &#1089; A.Token</text><path d="M60,168.4293 L60,195.4293 L174,195.4293 L174,178.4293 L164,168.4293 L60,168.4293 " fill="#FEFFDD" style="stroke:#181818;stroke-width:0.5;"/><path d="M164,168.4293 L164,178.4293 L174,178.4293 L164,168.4293 " fill="#FEFFDD" style="stroke:#181818;stroke-width:0.5;"/><text fill="#000000" font-family="sans-serif" font-size="13" lengthAdjust="spacing" textLength="93" x="66" y="187.3105">&#1055;&#1086;&#1076;&#1082;&#1083;&#1102;&#1095;&#1077;&#1085;&#1080;&#1077;.</text><polygon fill="#181818" points="333.5,220.8011,323.5,224.8011,333.5,228.8011,329.5,224.8011" style="stroke:#181818;stroke-width:1.0;"/><line style="stroke:#181818;stroke-width:1.0;" x1="327.5" x2="472.5" y1="224.8011" y2="224.8011"/><text fill="#000000" font-family="sans-serif" font-size="13" lengthAdjust="spacing" textLength="48" x="339.5" y="218.9964">A.Token</text><polygon fill="#181818" points="461.5,252.4869,471.5,256.4869,461.5,260.4869,465.5,256.4869" style="stroke:#181818;stroke-width:1.0;"/><line style="stroke:#181818;stroke-width:1.0;stroke-dasharray:2.0,2.0;" x1="317.5" x2="467.5" y1="256.4869" y2="256.4869"/><text fill="#000000" font-family="sans-serif" font-size="13" lengthAdjust="spacing" textLength="74" x="324.5" y="250.6823">Valid/Invalid</text><polygon fill="#181818" points="200.5,284.1728,190.5,288.1728,200.5,292.1728,196.5,288.1728" style="stroke:#181818;stroke-width:1.0;"/><line style="stroke:#181818;stroke-width:1.0;stroke-dasharray:2.0,2.0;" x1="194.5" x2="477.5" y1="288.1728" y2="288.1728"/><text fill="#000000" font-family="sans-serif" font-size="13" lengthAdjust="spacing" textLength="201" x="206.5" y="282.3681">http &#1089;&#1089;&#1099;&#1083;&#1082;&#1072; &#1076;&#1083;&#1103; &#1089;&#1090;&#1077;&#1081;&#1090;&#1072; &#1072;&#1082;&#1082;&#1072;&#1091;&#1085;&#1090;&#1072;</text><polygon fill="#181818" points="588.5,315.8587,598.5,319.8587,588.5,323.8587,592.5,319.8587" style="stroke:#181818;stroke-width:1.0;"/><line style="stroke:#181818;stroke-width:1.0;" x1="189.5" x2="594.5" y1="319.8587" y2="319.8587"/><text fill="#000000" font-family="sans-serif" font-size="13" lengthAdjust="spacing" textLength="145" x="196.5" y="314.054">&#1079;&#1072;&#1087;&#1088;&#1086;&#1089; &#1089;&#1090;&#1077;&#1081;&#1090;&#1072; &#1072;&#1082;&#1082;&#1072;&#1091;&#1085;&#1090;&#1072;</text><polygon fill="#181818" points="333.5,347.5446,323.5,351.5446,333.5,355.5446,329.5,351.5446" style="stroke:#181818;stroke-width:1.0;"/><line style="stroke:#181818;stroke-width:1.0;" x1="327.5" x2="599.5" y1="351.5446" y2="351.5446"/><text fill="#000000" font-family="sans-serif" font-size="13" lengthAdjust="spacing" textLength="48" x="339.5" y="345.7399">A.Token</text><polygon fill="#181818" points="588.5,379.2305,598.5,383.2305,588.5,387.2305,592.5,383.2305" style="stroke:#181818;stroke-width:1.0;"/><line style="stroke:#181818;stroke-width:1.0;stroke-dasharray:2.0,2.0;" x1="317.5" x2="594.5" y1="383.2305" y2="383.2305"/><text fill="#000000" font-family="sans-serif" font-size="13" lengthAdjust="spacing" textLength="74" x="324.5" y="377.4258">Valid/Invalid</text><polygon fill="#181818" points="195.5,410.9164,185.5,414.9164,195.5,418.9164,191.5,414.9164" style="stroke:#181818;stroke-width:1.0;"/><line style="stroke:#181818;stroke-width:1.0;stroke-dasharray:2.0,2.0;" x1="189.5" x2="604.5" y1="414.9164" y2="414.9164"/><text fill="#000000" font-family="sans-serif" font-size="13" lengthAdjust="spacing" textLength="387" x="201.5" y="409.1117">&#1057;&#1090;&#1077;&#1081;&#1090; &#1072;&#1082;&#1082;&#1072;&#1091;&#1085;&#1090;&#1072; (&#1075;&#1088;&#1091;&#1087;&#1087;&#1099;, &#1082;&#1072;&#1085;&#1072;&#1083;&#1099;, &#1085;&#1077;&#1087;&#1088;&#1086;&#1095;&#1080;&#1090;&#1072;&#1085;&#1085;&#1099;&#1077; &#1089;&#1086;&#1086;&#1073;&#1097;&#1077;&#1085;&#1080;&#1103;)</text><polygon fill="#181818" points="588.5,445.6022,598.5,449.6022,588.5,453.6022,592.5,449.6022" style="stroke:#181818;stroke-width:1.0;"/><line style="stroke:#181818;stroke-width:1.0;" x1="189.5" x2="594.5" y1="449.6022" y2="449.6022"/><text fill="#000000" font-family="sans-serif" font-size="13" lengthAdjust="spacing" textLength="184" x="196.5" y="443.7976">&#1054;&#1090;&#1087;&#1088;&#1072;&#1074;&#1080;&#1090;&#1100; &#1085;&#1086;&#1074;&#1086;&#1077; &#1089;&#1086;&#1086;&#1073;&#1097;&#1077;&#1085;&#1080;&#1077;</text><path d="M15,427.9164 L15,454.9164 L174,454.9164 L174,437.9164 L164,427.9164 L15,427.9164 " fill="#FEFFDD" style="stroke:#181818;stroke-width:0.5;"/><path d="M164,427.9164 L164,437.9164 L174,437.9164 L164,427.9164 " fill="#FEFFDD" style="stroke:#181818;stroke-width:0.5;"/><text fill="#000000" font-family="sans-serif" font-size="13" lengthAdjust="spacing" textLength="138" x="21" y="446.7976">&#1054;&#1090;&#1087;&#1088;&#1072;&#1074;&#1082;&#1072; &#1089;&#1086;&#1086;&#1073;&#1097;&#1077;&#1085;&#1080;&#1103;.</text><polygon fill="#181818" points="333.5,480.2881,323.5,484.2881,333.5,488.2881,329.5,484.2881" style="stroke:#181818;stroke-width:1.0;"/><line style="stroke:#181818;stroke-width:1.0;" x1="327.5" x2="599.5" y1="484.2881" y2="484.2881"/><text fill="#000000" font-family="sans-serif" font-size="13" lengthAdjust="spacing" textLength="48" x="339.5" y="478.4834">A.Token</text><polygon fill="#181818" points="588.5,511.974,598.5,515.974,588.5,519.974,592.5,515.974" style="stroke:#181818;stroke-width:1.0;"/><line style="stroke:#181818;stroke-width:1.0;stroke-dasharray:2.0,2.0;" x1="317.5" x2="594.5" y1="515.974" y2="515.974"/><text fill="#000000" font-family="sans-serif" font-size="13" lengthAdjust="spacing" textLength="74" x="324.5" y="510.1693">Valid/Invalid</text><polygon fill="#181818" points="799.5,543.6599,809.5,547.6599,799.5,551.6599,803.5,547.6599" style="stroke:#181818;stroke-width:1.0;"/><line style="stroke:#181818;stroke-width:1.0;" x1="610.5" x2="805.5" y1="547.6599" y2="547.6599"/><text fill="#000000" font-family="sans-serif" font-size="13" lengthAdjust="spacing" textLength="149" x="617.5" y="541.8552">&#1089;&#1086;&#1093;&#1088;&#1072;&#1085;&#1077;&#1085;&#1080;&#1077; &#1089;&#1086;&#1086;&#1073;&#1097;&#1077;&#1085;&#1080;&#1103;</text><polygon fill="#181818" points="621.5,575.3458,611.5,579.3458,621.5,583.3458,617.5,579.3458" style="stroke:#181818;stroke-width:1.0;"/><line style="stroke:#181818;stroke-width:1.0;stroke-dasharray:2.0,2.0;" x1="615.5" x2="815.5" y1="579.3458" y2="579.3458"/><text fill="#000000" font-family="sans-serif" font-size="13" lengthAdjust="spacing" textLength="177" x="627.5" y="573.5411">&#1087;&#1086;&#1076;&#1090;&#1074;&#1077;&#1088;&#1078;&#1076;&#1077;&#1085;&#1080;&#1077; &#1089;&#1086;&#1093;&#1088;&#1072;&#1085;&#1077;&#1085;&#1080;&#1103;</text><polygon fill="#181818" points="200.5,607.0316,190.5,611.0316,200.5,615.0316,196.5,611.0316" style="stroke:#181818;stroke-width:1.0;"/><line style="stroke:#181818;stroke-width:1.0;stroke-dasharray:2.0,2.0;" x1="194.5" x2="604.5" y1="611.0316" y2="611.0316"/><text fill="#000000" font-family="sans-serif" font-size="13" lengthAdjust="spacing" textLength="190" x="206.5" y="605.227">&#1074;&#1086;&#1079;&#1074;&#1088;&#1072;&#1090; &#1089;&#1089;&#1099;&#1083;&#1082;&#1080; &#1085;&#1072; &#1089;&#1086;&#1086;&#1073;&#1097;&#1077;&#1085;&#1080;&#1077;</text><polygon fill="#181818" points="461.5,638.7175,471.5,642.7175,461.5,646.7175,465.5,642.7175" style="stroke:#181818;stroke-width:1.0;"/><line style="stroke:#181818;stroke-width:1.0;" x1="189.5" x2="467.5" y1="642.7175" y2="642.7175"/><text fill="#000000" font-family="sans-serif" font-size="13" lengthAdjust="spacing" textLength="258" x="196.5" y="636.9129">&#1086;&#1090;&#1087;&#1088;&#1072;&#1074;&#1082;&#1072; &#1089;&#1089;&#1099;&#1083;&#1082;&#1080; &#1085;&#1072; &#1089;&#1086;&#1086;&#1073;&#1097;&#1077;&#1085;&#1080;&#1077; &#1072;&#1076;&#1088;&#1077;&#1089;&#1072;&#1090;&#1091;</text><polygon fill="#181818" points="195.5,670.4034,185.5,674.4034,195.5,678.4034,191.5,674.4034" style="stroke:#181818;stroke-width:1.0;"/><line style="stroke:#181818;stroke-width:1.0;stroke-dasharray:2.0,2.0;" x1="189.5" x2="472.5" y1="674.4034" y2="674.4034"/><text fill="#000000" font-family="sans-serif" font-size="13" lengthAdjust="spacing" textLength="162" x="201.5" y="668.5987">&#1087;&#1086;&#1076;&#1090;&#1074;&#1077;&#1088;&#1078;&#1076;&#1077;&#1085;&#1080;&#1077; &#1086;&#1090;&#1087;&#1088;&#1072;&#1074;&#1082;&#1080;</text><polygon fill="#181818" points="195.5,702.0893,185.5,706.0893,195.5,710.0893,191.5,706.0893" style="stroke:#181818;stroke-width:1.0;"/><line style="stroke:#181818;stroke-width:1.0;stroke-dasharray:2.0,2.0;" x1="189.5" x2="477.5" y1="706.0893" y2="706.0893"/><text fill="#000000" font-family="sans-serif" font-size="13" lengthAdjust="spacing" textLength="190" x="201.5" y="700.2846">&#1088;&#1072;&#1089;&#1087;&#1086;&#1089;&#1090;&#1088;&#1072;&#1085;&#1077;&#1085;&#1080;&#1077; &#1087;&#1086; &#1072;&#1076;&#1088;&#1077;&#1089;&#1072;&#1090;&#1072;&#1084;</text><polygon fill="#181818" points="200.5,736.7752,190.5,740.7752,200.5,744.7752,196.5,740.7752" style="stroke:#181818;stroke-width:1.0;"/><line style="stroke:#181818;stroke-width:1.0;" x1="194.5" x2="472.5" y1="740.7752" y2="740.7752"/><text fill="#000000" font-family="sans-serif" font-size="13" lengthAdjust="spacing" textLength="216" x="206.5" y="734.9705">&#1091;&#1074;&#1077;&#1076;&#1086;&#1084;&#1083;&#1077;&#1085;&#1080;&#1077; &#1086; &#1085;&#1086;&#1074;&#1086;&#1084; &#1089;&#1086;&#1086;&#1073;&#1097;&#1077;&#1085;&#1080;&#1080;</text><path d="M5,719.0893 L5,746.0893 L175,746.0893 L175,729.0893 L165,719.0893 L5,719.0893 " fill="#FEFFDD" style="stroke:#181818;stroke-width:0.5;"/><path d="M165,719.0893 L165,729.0893 L175,729.0893 L165,719.0893 " fill="#FEFFDD" style="stroke:#181818;stroke-width:0.5;"/><text fill="#000000" font-family="sans-serif" font-size="13" lengthAdjust="spacing" textLength="149" x="11" y="737.9705">&#1055;&#1086;&#1083;&#1091;&#1095;&#1077;&#1085;&#1080;&#1077; &#1089;&#1086;&#1086;&#1073;&#1097;&#1077;&#1085;&#1080;&#1103;.</text><polygon fill="#181818" points="466.5,771.4611,476.5,775.4611,466.5,779.4611,470.5,775.4611" style="stroke:#181818;stroke-width:1.0;"/><line style="stroke:#181818;stroke-width:1.0;stroke-dasharray:2.0,2.0;" x1="189.5" x2="472.5" y1="775.4611" y2="775.4611"/><text fill="#000000" font-family="sans-serif" font-size="13" lengthAdjust="spacing" textLength="260" x="196.5" y="769.6564">&#1087;&#1086;&#1076;&#1090;&#1074;&#1077;&#1088;&#1078;&#1076;&#1077;&#1085;&#1080;&#1077; &#1087;&#1086;&#1083;&#1091;&#1095;&#1077;&#1085;&#1080;&#1103; &#1091;&#1074;&#1077;&#1076;&#1086;&#1084;&#1083;&#1077;&#1085;&#1080;&#1103;</text><polygon fill="#181818" points="588.5,803.1469,598.5,807.1469,588.5,811.1469,592.5,807.1469" style="stroke:#181818;stroke-width:1.0;"/><line style="stroke:#181818;stroke-width:1.0;" x1="189.5" x2="594.5" y1="807.1469" y2="807.1469"/><text fill="#000000" font-family="sans-serif" font-size="13" lengthAdjust="spacing" textLength="171" x="196.5" y="801.3423">&#1047;&#1072;&#1087;&#1088;&#1086;&#1089; &#1076;&#1072;&#1085;&#1085;&#1099;&#1093; &#1089;&#1086;&#1086;&#1073;&#1097;&#1077;&#1085;&#1080;&#1103;</text><polygon fill="#181818" points="333.5,834.8328,323.5,838.8328,333.5,842.8328,329.5,838.8328" style="stroke:#181818;stroke-width:1.0;"/><line style="stroke:#181818;stroke-width:1.0;" x1="327.5" x2="599.5" y1="838.8328" y2="838.8328"/><text fill="#000000" font-family="sans-serif" font-size="13" lengthAdjust="spacing" textLength="48" x="339.5" y="833.0282">A.Token</text><polygon fill="#181818" points="588.5,866.5187,598.5,870.5187,588.5,874.5187,592.5,870.5187" style="stroke:#181818;stroke-width:1.0;"/><line style="stroke:#181818;stroke-width:1.0;stroke-dasharray:2.0,2.0;" x1="317.5" x2="594.5" y1="870.5187" y2="870.5187"/><text fill="#000000" font-family="sans-serif" font-size="13" lengthAdjust="spacing" textLength="74" x="324.5" y="864.714">Valid/Invalid</text><polygon fill="#181818" points="799.5,898.2046,809.5,902.2046,799.5,906.2046,803.5,902.2046" style="stroke:#181818;stroke-width:1.0;"/><line style="stroke:#181818;stroke-width:1.0;" x1="610.5" x2="805.5" y1="902.2046" y2="902.2046"/><text fill="#000000" font-family="sans-serif" font-size="13" lengthAdjust="spacing" textLength="149" x="617.5" y="896.3999">&#1080;&#1079;&#1074;&#1083;&#1077;&#1095;&#1077;&#1085;&#1080;&#1077; &#1089;&#1086;&#1086;&#1073;&#1097;&#1077;&#1085;&#1080;&#1103;</text><polygon fill="#181818" points="621.5,929.8905,611.5,933.8905,621.5,937.8905,617.5,933.8905" style="stroke:#181818;stroke-width:1.0;"/><line style="stroke:#181818;stroke-width:1.0;stroke-dasharray:2.0,2.0;" x1="615.5" x2="815.5" y1="933.8905" y2="933.8905"/><text fill="#000000" font-family="sans-serif" font-size="13" lengthAdjust="spacing" textLength="72" x="627.5" y="928.0858">&#1089;&#1086;&#1086;&#1073;&#1097;&#1077;&#1085;&#1080;&#1077;</text><polygon fill="#181818" points="890,961.5764,900,965.5764,890,969.5764,894,965.5764" style="stroke:#181818;stroke-width:1.0;"/><line style="stroke:#181818;stroke-width:1.0;" x1="610.5" x2="896" y1="965.5764" y2="965.5764"/><text fill="#000000" font-family="sans-serif" font-size="13" lengthAdjust="spacing" textLength="185" x="617.5" y="959.7717">&#1080;&#1079;&#1074;&#1083;&#1077;&#1095;&#1077;&#1085;&#1080;&#1077; &#1089;&#1089;&#1099;&#1083;&#1086;&#1082; &#1085;&#1072; &#1092;&#1072;&#1081;&#1083;&#1099;</text><polygon fill="#181818" points="621.5,993.2622,611.5,997.2622,621.5,1001.2622,617.5,997.2622" style="stroke:#181818;stroke-width:1.0;"/><line style="stroke:#181818;stroke-width:1.0;stroke-dasharray:2.0,2.0;" x1="615.5" x2="906" y1="997.2622" y2="997.2622"/><text fill="#000000" font-family="sans-serif" font-size="13" lengthAdjust="spacing" textLength="108" x="627.5" y="991.4576">&#1089;&#1089;&#1099;&#1083;&#1082;&#1080; &#1085;&#1072; &#1092;&#1072;&#1081;&#1083;&#1099;</text><polygon fill="#181818" points="195.5,1024.9481,185.5,1028.9481,195.5,1032.9481,191.5,1028.9481" style="stroke:#181818;stroke-width:1.0;"/><line style="stroke:#181818;stroke-width:1.0;stroke-dasharray:2.0,2.0;" x1="189.5" x2="604.5" y1="1028.9481" y2="1028.9481"/><text fill="#000000" font-family="sans-serif" font-size="13" lengthAdjust="spacing" textLength="246" x="201.5" y="1023.1434">&#1074;&#1086;&#1079;&#1074;&#1088;&#1072;&#1090; &#1089;&#1086;&#1086;&#1073;&#1097;&#1077;&#1085;&#1080;&#1103; &#1080; &#1089;&#1089;&#1099;&#1083;&#1086;&#1082; &#1085;&#1072; &#1092;&#1072;&#1081;&#1083;&#1099;</text><!--SRC=[nLRBRjD05DtxAxm3fARi8uHKG0WMR0314hcfeLQ34xMJhjk4Kg4Ymeu5KX5_ODA6fati_CATF-BSYHypziI9M40g9PtNyJddFiPUItJstOVjm0-5utIzVH6qWguN2dUh9tQDYTV-zejEQyyNnkmJ8Rh6n3F_uC1xvxzvzC2OVXoqrPnpowNlbD05JIZ6mEk9JjXxl-tlEmiMRkE-UdPJtnTsXE-s_RS2irzf9FkKo2EiN54aFz943ZSThoM2Gm_RKZ7vM0b9iUyr6YdurkRBpfuVRZnV_3exldb06sVkWFaSZ2xfXgRoYpobCSNWC3PKk9gCtB7cafEkFCw8619_s3RNI2n2u-AJZmehiuVmigdJF53uyyfh1pjtduQ7_AjsbHtIBDM4xY8V80j_PpI5XCY5agaSybmVKgxnZRa8IrYK0ufvGhUx45CuoLa6Nn1kcYFm2NohnylHL7uoVVvdNKFKth_q8gNwCsDNuURUfWjvXD4SMiusN5v3X2EunACOnnOQJv7OVRKMmqnE5gH5Gh_afqLAoE4TtJUbr9ws2N0OCwAH2aaLQLabfchEDG2Gaf-PPu91Ok65Yj2J-Npbmsio-z-4BmClUbTJqPGdYdUirMl5k1n9Qtmv0HrmqG9WneZ6WFsDkj1XpMS1M2EfGLSpZODmXPw8qyWshVGc7AJ85fvorjXRLZLhLaDpjb_Yp1XBe2C7plAwBdME6dzAL2QMDBTZAbEE6PdRHIcOF5tYYz7CtekoxZ-L0wD_L_8X9sBm6B0gA4fe1WCBNKKTpQfkJYgNmggdhtL7PD6stL1s-ql2kPjR19avMzF6lsbj711fXvCdjUNr_pg1UiyOiShwoA_T2UehidmQRDANfwLKqhfCw2QjomymzPelb89KzWAMCyf1BNLTdDU8PGYhMr3P6l2kPxdw6li3]--></g></svg>